<?xml version="1.0" standalone="no"?>
<!DOCTYPE svg PUBLIC "-//W3C//DTD SVG 20010904//EN"
 "http://www.w3.org/TR/2001/REC-SVG-20010904/DTD/svg10.dtd">
<svg version="1.0" xmlns="http://www.w3.org/2000/svg"
 width="300.000000pt" height="300.000000pt" viewBox="0 0 300.000000 300.000000"
 preserveAspectRatio="xMidYMid meet">
<metadata>
Created by potrace 1.11, written by Peter Selinger 2001-2013
</metadata>
<g transform="translate(0.000000,300.000000) scale(0.100000,-0.100000)"
fill="#000000" stroke="none">
<path d="M815 2649 c-253 -149 -522 -307 -597 -352 l-138 -82 0 -105 c-2 -844
1 -1324 7 -1330 4 -4 201 -121 438 -260 384 -226 641 -378 731 -431 l30 -18
425 250 c233 138 437 258 453 268 16 9 36 21 45 26 9 6 76 45 149 88 72 43
132 81 132 85 -1 4 -87 57 -193 119 -106 61 -277 162 -382 224 -104 62 -284
168 -400 236 -115 68 -211 127 -213 131 -2 6 87 61 242 150 23 13 61 36 86 51
25 16 101 61 170 101 69 40 179 105 245 145 66 39 193 113 282 165 90 52 163
98 163 101 0 4 -33 26 -72 49 -40 24 -158 94 -263 155 -732 433 -857 505 -868
505 -7 0 -220 -122 -472 -271z"/>
<path d="M2735 2101 c-99 -59 -308 -183 -465 -276 -157 -92 -345 -203 -418
-247 l-133 -80 213 -125 c280 -165 548 -323 790 -467 108 -64 199 -116 202
-116 3 0 6 320 6 710 0 391 -3 710 -7 709 -5 0 -89 -49 -188 -108z"/>
</g>
</svg>
